<?xml version="1.0" encoding="UTF-8" standalone="no"?>
<!-- Created with Inkscape (http://www.inkscape.org/) -->

<svg
   width="1920"
   height="1080"
   viewBox="0 0 1920 1080"
   version="1.1"
   id="svg1"
   inkscape:version="1.3 (0e150ed6c4, 2023-07-21)"
   sodipodi:docname="dibujo.svg"
   xml:space="preserve"
   inkscape:export-filename="..\Documents\Proyectos_Desarrollo_2025x6\Cottonlogger-Chat\src\logo.svg"
   inkscape:export-xdpi="96"
   inkscape:export-ydpi="96"
   xmlns:inkscape="http://www.inkscape.org/namespaces/inkscape"
   xmlns:sodipodi="http://sodipodi.sourceforge.net/DTD/sodipodi-0.dtd"
   xmlns="http://www.w3.org/2000/svg"
   xmlns:svg="http://www.w3.org/2000/svg"><sodipodi:namedview
     id="namedview1"
     pagecolor="#ffffff"
     bordercolor="#000000"
     borderopacity="0.25"
     inkscape:showpageshadow="2"
     inkscape:pageopacity="0.0"
     inkscape:pagecheckerboard="0"
     inkscape:deskcolor="#d1d1d1"
     inkscape:document-units="px"
     inkscape:zoom="0.17972298"
     inkscape:cx="689.95074"
     inkscape:cy="414.52686"
     inkscape:window-width="1366"
     inkscape:window-height="715"
     inkscape:window-x="-8"
     inkscape:window-y="-8"
     inkscape:window-maximized="1"
     inkscape:current-layer="layer1" /><defs
     id="defs1" /><g
     inkscape:label="Capa 1"
     inkscape:groupmode="layer"
     id="layer1"><g
       id="g7"
       transform="matrix(1.0777395,0,0,1.0777395,-74.631385,-48.791919)"><path
         id="path2-6"
         style="fill:#000000;stroke-width:15.5658"
         d="m 510.35547,362.18555 c -49.28105,0.71602 -69.14258,33.62304 -69.14258,33.62304 C 299.34721,407.51399 336.64001,526.23318 336.5,526.43555 c -20.15754,28.82763 -24.96484,41.32953 -24.96484,66.29687 0,48.02012 42.2588,106.62305 121.98632,106.62305 l 27.86524,-0.96289 c 0.75677,0.4441 3.39152,0.77697 6.89844,1.05469 -0.2085,-23.58208 -1.54912,-30.13038 -14.95314,-30.13038 -9.61903,0 -15.45141,-6.73059 -22.62694,-11.24072 -13.54214,-7.53378 -34.18427,-48.83098 -45.12696,-56.7539 -7.64279,-5.51027 -10.41221,-6.78576 -12.51367,-9.50977 l 15.36328,-0.9668 c 41.3112,0 77.19077,69.84424 101.09961,72.02344 7.82964,0.71602 14.16602,-7.65655 14.16602,-14.39648 0,-9.60403 -11.5494,-20.06593 -9.65039,-37.87305 1.32306,-12.42142 2.94149,-20.71895 18.30469,-50.49609 17.6204,28.96772 20.17382,38.23032 20.17382,50.49609 0,12.48368 -7.6914,25.38764 -7.6914,36.90625 0,7.68944 4.81066,15.36328 12.5,15.36328 31.69182,0 59.55506,-72.03711 103.73047,-72.03711 l 13.44922,0.96485 -10.57032,9.60351 c -20.15766,17.29346 -26.71508,46.36659 -50.73307,60.79598 -5.75655,1.92175 -7.11012,6.93863 -19.49272,6.93863 -14.56504,0 -7.76271,7.60436 -7.83866,30.95094 11.51056,-0.0201 28.27814,-0.74414 44.38281,-0.74414 55.70956,0 105.65821,-48.02021 105.65821,-98.93555 0,-30.74223 -14.41496,-64.36669 -25.9336,-73.9707 0,0 23.148,-122.82732 -106.14062,-127.7461 -18.24351,-21.1382 -36.98478,-37.03314 -73.48633,-36.5039 z M 565.875,700.08594 c -0.1599,2.8e-4 -0.40859,0.01 -0.56641,0.01 -1.1781,0 -5.934,0.0354 -9.05078,0.0527 -0.0411,0.0965 -0.0877,0.1911 -0.13086,0.28711 l 9.73828,-0.008 c 0,-0.1213 0.009,-0.22147 0.01,-0.34179 z m -97.58984,-0.63867 c 0.003,0.37047 0.0293,0.67634 0.0293,1.05664 l 5.9961,-0.004 c -0.0771,-0.24178 -0.15025,-0.48503 -0.21875,-0.73047 -2.07821,-0.0982 -4.1842,-0.19378 -5.80664,-0.32226 z"
         sodipodi:nodetypes="cccscccscccccsccsssccccscsscccssccccsscccss" /><path
         style="font-size:215.402px;font-family:'Yiggivoo Unicode';-inkscape-font-specification:'Yiggivoo Unicode';letter-spacing:8.58238px;word-spacing:-0.959207px;fill-rule:evenodd;stroke:#000000;stroke-width:9.54037;stroke-linecap:round;paint-order:markers stroke fill"
         d="m 171.60009,667.75305 c 22.97621,0 39.84937,6.67746 50.61947,20.03239 0.71801,1.00521 1.50781,2.08222 2.36942,3.23103 0.86161,1.14881 1.29241,2.36942 1.29241,3.66183 0,1.86682 -0.64621,3.30283 -1.93862,4.30804 -1.14881,1.00521 -2.51302,1.50781 -4.09264,1.50781 h -11.4163 c -2.58483,0 -4.45164,-1.22061 -5.60045,-3.66183 l -1.93862,-4.52344 c -6.31846,-12.49332 -16.08335,-18.73998 -29.29467,-18.73998 -13.21133,0 -22.97622,6.31846 -29.29467,18.95538 -6.31846,12.49331 -9.47769,32.09489 -9.47769,58.80474 0,26.99705 3.15923,46.74224 9.47769,59.23555 6.31845,12.34971 16.08334,18.52457 29.29467,18.52457 13.21132,0 22.97621,-6.24666 29.29467,-18.73997 0.71801,-1.29241 1.36421,-3.08743 1.93862,-5.38505 0.71801,-2.29762 1.50781,-4.52344 2.36942,-6.67746 0.86161,-2.15402 1.79501,-4.02084 2.80022,-5.60045 1.14881,-1.57962 2.58483,-2.36943 4.30804,-2.36943 h 13.78573 c 1.72322,0 3.15923,0.57441 4.30804,1.72322 1.14881,1.14881 1.72322,2.51303 1.72322,4.09264 0,1.00521 -0.1436,1.79501 -0.43081,2.36942 -4.88244,12.78052 -12.34971,22.04281 -22.4018,27.78686 -9.90849,5.74405 -22.47361,8.68788 -37.69535,8.83148 h -1.07701 c -22.25821,0 -38.84416,-6.60566 -49.75786,-19.81698 -10.9137,-13.35493 -16.37055,-34.46432 -16.37055,-63.32819 0,-14.36013 1.36421,-26.78165 4.09263,-37.26455 2.72843,-10.48289 6.82107,-19.09897 12.27792,-25.84823 5.60045,-6.89287 12.56512,-12.06252 20.89399,-15.50895 8.47248,-3.44643 18.45277,-5.31325 29.94088,-5.60045 z m 154.19409,47.81924 c 22.68901,0 39.63397,4.81065 50.83487,14.43194 11.20091,9.62129 16.80136,24.84303 16.80136,45.66522 0,20.82219 -5.67225,36.04393 -17.01676,45.66522 -11.2009,9.62129 -28.07406,14.43193 -50.61947,14.43193 -23.40701,0 -40.49557,-4.73884 -51.26567,-14.21653 -10.7701,-9.62129 -16.15515,-24.69943 -16.15515,-45.23442 0,-10.48289 1.36421,-19.45797 4.09264,-26.92524 2.87203,-7.61087 7.10827,-13.85753 12.70872,-18.73998 5.60045,-4.88245 12.56511,-8.54428 20.89399,-10.9855 8.47248,-2.44122 18.38097,-3.80543 29.72547,-4.09264 z m 0,6.67746 c -13.06772,0 -22.83261,4.37984 -29.29467,13.13953 -6.46206,8.61608 -9.69309,22.2582 -9.69309,40.92637 0,18.66817 3.15923,32.3821 9.47769,41.14179 6.46206,8.61607 16.29875,12.92411 29.51007,12.92411 13.21133,0 22.97622,-4.30804 29.29467,-12.92411 6.46206,-8.75969 9.69309,-22.47362 9.69309,-41.14179 0,-18.81177 -3.23103,-32.5257 -9.69309,-41.14178 -6.31845,-8.61608 -16.08334,-12.92412 -29.29467,-12.92412 z M 609.84183,835.5512 h -1.72322 c -22.11461,0 -38.62876,-4.73884 -49.54246,-14.21653 -10.7701,-9.47769 -16.15515,-24.55583 -16.15515,-45.23442 v -48.03464 h -10.7701 v -6.03126 h 10.7701 c 2.15402,0 4.45164,-1.22061 6.89287,-3.66183 2.44122,-2.44123 4.66704,-5.81586 6.67746,-10.1239 2.15402,-4.30804 3.94904,-9.40589 5.38505,-15.29354 1.43601,-5.88765 2.22582,-12.20611 2.36942,-18.95537 h 7.10826 v 48.03464 h 31.01789 v 6.03126 h -31.01789 v 48.03464 c 0,6.03126 0.43081,12.27792 1.29242,18.73998 1.00521,6.31845 2.87202,12.13431 5.60045,17.44756 2.72843,5.16965 6.60566,9.47769 11.63171,12.92412 5.16965,3.30283 11.99071,4.95424 20.46319,4.95424 z M 710.83167,715.57229 c 22.68901,0 39.63397,4.81065 50.83487,14.43194 11.20091,9.62129 16.80136,24.84303 16.80136,45.66522 0,20.82219 -5.67225,36.04393 -17.01676,45.66522 -11.2009,9.62129 -28.07406,14.43193 -50.61947,14.43193 -23.40701,0 -40.49557,-4.73884 -51.26567,-14.21653 -10.7701,-9.62129 -16.15515,-24.69943 -16.15515,-45.23442 0,-10.48289 1.36421,-19.45797 4.09264,-26.92524 2.87203,-7.61087 7.10827,-13.85753 12.70872,-18.73998 5.60045,-4.88245 12.56511,-8.54428 20.89399,-10.9855 8.47248,-2.44122 18.38097,-3.80543 29.72547,-4.09264 z m 0,6.67746 c -13.06772,0 -22.83261,4.37984 -29.29467,13.13953 -6.46206,8.61608 -9.69309,22.2582 -9.69309,40.92637 0,18.66817 3.15923,32.3821 9.47769,41.14179 6.46206,8.61607 16.29875,12.92411 29.51007,12.92411 13.21133,0 22.97622,-4.30804 29.29468,-12.92411 6.46205,-8.75969 9.69308,-22.47362 9.69308,-41.14179 0,-18.81177 -3.23103,-32.5257 -9.69308,-41.14178 -6.31846,-8.61608 -16.08335,-12.92412 -29.29468,-12.92412 z m 94.09676,-3.66183 h 20.89399 c 1.72322,0 3.15923,0.5026 4.30804,1.50781 1.29241,0.86161 2.72843,1.29242 4.30804,1.29242 h 1.29241 c 0.57441,0 1.07701,-0.1436 1.50782,-0.43081 9.33409,-3.59003 21.03759,-5.38505 35.11052,-5.38505 22.68901,0 39.63397,4.81065 50.83487,14.43194 11.20091,9.62129 16.80136,24.84303 16.80136,45.66522 v 57.08153 h -28.64847 v -58.37394 c 0,-18.23737 -3.23103,-31.5923 -9.69309,-40.06477 -6.46206,-8.47248 -16.22695,-12.70872 -29.29467,-12.70872 -12.49331,0 -22.1146,4.09264 -28.86386,12.27791 -6.74927,8.18528 -10.1239,20.9658 -10.1239,38.34156 v 60.52796 h -28.43306 z m 166.90301,114.16306 v -162.1977 h 28.43306 v 162.1977 z M 1094.7924,715.57229 c 22.689,0 39.6339,4.81065 50.8348,14.43194 11.2009,9.62129 16.8014,24.84303 16.8014,45.66522 0,20.82219 -5.6723,36.04393 -17.0168,45.66522 -11.2009,9.62129 -28.074,14.43193 -50.6194,14.43193 -23.4071,0 -40.4956,-4.73884 -51.2657,-14.21653 -10.7701,-9.62129 -16.1552,-24.69943 -16.1552,-45.23442 0,-10.48289 1.3642,-19.45797 4.0927,-26.92524 2.872,-7.61087 7.1082,-13.85753 12.7087,-18.73998 5.6005,-4.88245 12.5651,-8.54428 20.894,-10.9855 8.4725,-2.44122 18.381,-3.80543 29.7255,-4.09264 z m 0,6.67746 c -13.0677,0 -22.8326,4.37984 -29.2947,13.13953 -6.4621,8.61608 -9.6931,22.2582 -9.6931,40.92637 0,18.66817 3.1592,32.3821 9.4777,41.14179 6.4621,8.61607 16.2988,12.92411 29.5101,12.92411 13.2113,0 22.9762,-4.30804 29.2946,-12.92411 6.4621,-8.75969 9.6931,-22.47362 9.6931,-41.14179 0,-18.81177 -3.231,-32.5257 -9.6931,-41.14178 -6.3184,-8.61608 -16.0833,-12.92412 -29.2946,-12.92412 z m 161.5175,-0.6462 c -13.0677,0 -22.8325,4.37984 -29.2946,13.13952 -6.4621,8.61608 -9.6931,22.25821 -9.6931,40.92638 0,18.66817 3.1592,32.3821 9.4777,41.14178 6.4621,8.61608 16.2987,12.92412 29.51,12.92412 13.2113,0 22.9762,-4.30804 29.2947,-12.92412 6.4621,-8.61608 9.6931,-22.33001 9.6931,-41.14178 0,-18.81177 -3.231,-32.5257 -9.6931,-41.14178 -6.3185,-8.61608 -16.0834,-12.92412 -29.2947,-12.92412 z m 29.5101,145.18094 c 3.7337,-5.16965 6.1749,-10.9855 7.3237,-17.44756 1.2924,-6.46206 2.0104,-12.85232 2.154,-19.17078 -5.0261,2.15402 -10.6983,3.51823 -17.0168,4.09264 -6.1748,0.57441 -13.283,0.93341 -21.3247,1.07701 h -1.5079 c -11.4881,0 -21.3965,-1.00521 -29.7254,-3.01563 -8.3289,-2.01042 -15.2218,-5.24145 -20.6786,-9.69309 -5.4569,-4.59524 -9.5495,-10.55469 -12.2779,-17.87836 -2.5849,-7.32367 -3.8773,-16.29875 -3.8773,-26.92525 0,-20.96579 5.5287,-36.18753 16.586,-45.66522 11.2009,-9.62129 28.1458,-14.43194 50.8348,-14.43194 14.0729,0 25.8483,1.79502 35.326,5.38505 0.4308,0.28721 0.8616,0.43081 1.2924,0.43081 h 1.5078 c 1.5796,0 2.9438,-0.43081 4.0926,-1.29242 1.2925,-1.00521 2.7285,-1.50781 4.3081,-1.50781 h 21.1094 v 106.83939 c 0,20.82219 -5.6005,36.04393 -16.8014,45.66522 -11.0573,9.76489 -28.0022,14.79094 -50.8349,15.07814 h -1.5078 c -10.9137,0 -20.5349,-1.14881 -28.8638,-3.44643 -8.1853,-2.15402 -15.0063,-5.60045 -20.4632,-10.3393 l -3.0157,-2.15402 c -1.2924,-1.29241 -1.9386,-2.87202 -1.9386,-4.73884 0,-1.86682 0.6462,-3.44643 1.9386,-4.73884 1.2925,-1.29241 2.9439,-1.93862 4.9543,-1.93862 h 9.0469 c 3.1592,0.4308 5.385,2.22582 6.6774,5.38505 2.4413,5.88765 5.6723,10.05209 9.6931,12.49331 4.1645,2.44123 9.3341,3.66184 15.509,3.66184 3.59,0 7.2518,-0.43081 10.9855,-1.29242 3.7336,-0.86161 7.2518,-2.01042 10.5547,-3.44643 3.4464,-1.29241 6.5338,-2.94382 9.2623,-4.95424 2.872,-1.86682 5.0978,-3.87724 6.6774,-6.03126 z m 138.2545,-145.18094 c -13.0677,0 -22.8326,4.37984 -29.2947,13.13952 -6.4621,8.61608 -9.6931,22.25821 -9.6931,40.92638 0,18.66817 3.1592,32.3821 9.4777,41.14178 6.4621,8.61608 16.2988,12.92412 29.5101,12.92412 13.2113,0 22.9762,-4.30804 29.2946,-12.92412 6.4621,-8.61608 9.6931,-22.33001 9.6931,-41.14178 0,-18.81177 -3.231,-32.5257 -9.6931,-41.14178 -6.3184,-8.61608 -16.0833,-12.92412 -29.2946,-12.92412 z m 29.51,145.18094 c 3.7337,-5.16965 6.1749,-10.9855 7.3237,-17.44756 1.2924,-6.46206 2.0104,-12.85232 2.154,-19.17078 -5.026,2.15402 -10.6982,3.51823 -17.0167,4.09264 -6.1749,0.57441 -13.2831,0.93341 -21.3248,1.07701 h -1.5078 c -11.4881,0 -21.3966,-1.00521 -29.7255,-3.01563 -8.3289,-2.01042 -15.2217,-5.24145 -20.6786,-9.69309 -5.4569,-4.59524 -9.5495,-10.55469 -12.2779,-17.87836 -2.5849,-7.32367 -3.8773,-16.29875 -3.8773,-26.92525 0,-20.96579 5.5287,-36.18753 16.586,-45.66522 11.2009,-9.62129 28.1459,-14.43194 50.8349,-14.43194 14.0729,0 25.8482,1.79502 35.3259,5.38505 0.4308,0.28721 0.8616,0.43081 1.2924,0.43081 h 1.5078 c 1.5796,0 2.9438,-0.43081 4.0927,-1.29242 1.2924,-1.00521 2.7284,-1.50781 4.308,-1.50781 h 21.1094 v 106.83939 c 0,20.82219 -5.6005,36.04393 -16.8014,45.66522 -11.0573,9.76489 -28.0022,14.79094 -50.8348,15.07814 h -1.5078 c -10.9137,0 -20.535,-1.14881 -28.8639,-3.44643 -8.1853,-2.15402 -15.0063,-5.60045 -20.4632,-10.3393 l -3.0156,-2.15402 c -1.2924,-1.29241 -1.9386,-2.87202 -1.9386,-4.73884 0,-1.86682 0.6462,-3.44643 1.9386,-4.73884 1.2924,-1.29241 2.9438,-1.93862 4.9542,-1.93862 h 9.0469 c 3.1592,0.4308 5.385,2.22582 6.6775,5.38505 2.4412,5.88765 5.6722,10.05209 9.6931,12.49331 4.1644,2.44123 9.334,3.66184 15.5089,3.66184 3.59,0 7.2518,-0.43081 10.9855,-1.29242 3.7337,-0.86161 7.2519,-2.01042 10.5547,-3.44643 3.4464,-1.29241 6.5338,-2.94382 9.2623,-4.95424 2.872,-1.86682 5.0978,-3.87724 6.6774,-6.03126 z M 1591.839,721.60355 c -13.0677,0 -22.8326,4.37984 -29.2947,13.13952 -6.4621,8.61608 -9.6931,22.25821 -9.6931,40.92638 v 6.89286 l 70.8673,-18.95537 c 1.7232,-0.43081 3.0874,-1.29242 4.0926,-2.58483 1.0052,-1.43601 1.5078,-3.01563 1.5078,-4.73884 v -1.29241 c -1.8668,-10.3393 -5.8158,-18.45278 -11.8471,-24.34043 -6.0312,-6.03125 -14.5755,-9.04688 -25.6328,-9.04688 z m 64.836,31.66409 c 0.1436,0.43081 0.2154,1.07701 0.2154,1.93862 0,2.01042 -0.5744,3.66183 -1.7232,4.95424 -1.0052,1.14881 -2.2976,1.93862 -3.8773,2.36943 l -97.7925,26.27904 c 1.5797,14.07293 5.4569,24.41223 11.6318,31.01789 6.1748,6.60566 15.0781,9.90849 26.7098,9.90849 10.3393,0 18.5963,-2.65663 24.7712,-7.96988 6.3185,-5.31325 10.4829,-13.64212 12.4933,-24.98663 0.2872,-1.86681 1.1488,-3.30283 2.5849,-4.30804 1.436,-1.14881 3.0156,-1.72321 4.7388,-1.72321 h 12.4933 c 2.0105,0 3.7337,0.71801 5.1697,2.15402 1.436,1.29241 2.154,3.08743 2.154,5.38505 0,1.00521 -0.072,1.72321 -0.2154,2.15402 -4.1645,12.49331 -11.5599,21.4684 -22.1864,26.92525 -10.4829,5.45685 -24.4841,8.25707 -42.0034,8.40067 h -1.5078 c -21.971,0 -38.4852,-4.66704 -49.5425,-14.00113 -10.9137,-9.47769 -16.3705,-24.62763 -16.3705,-45.44982 0,-20.96579 5.5286,-36.18753 16.5859,-45.66522 11.2009,-9.62129 28.1459,-14.43193 50.8349,-14.43193 36.0439,0 57.6559,12.34971 64.836,37.04914 z m 27.1071,-34.67972 h 20.894 c 1.7232,0 3.1592,0.5026 4.308,1.50781 1.2924,0.86161 2.7284,1.29242 4.308,1.29242 h 1.2925 c 0.5744,0 1.077,-0.1436 1.5078,-0.43081 9.3341,-3.59003 21.0376,-5.38505 35.1105,-5.38505 22.9762,0 39.993,4.81065 51.0503,14.43194 1.2924,1.14881 2.7284,2.65662 4.308,4.52344 1.5796,1.72321 3.0156,3.66183 4.308,5.81585 1.4361,2.01042 2.5849,4.16444 3.4465,6.46206 0.8616,2.15402 1.2924,4.23624 1.2924,6.24666 0,2.29762 -0.718,4.16444 -2.154,5.60045 -1.4361,1.29241 -3.1593,1.93862 -5.1697,1.93862 h -12.4933 c -1.7232,0 -3.3028,-0.5026 -4.7388,-1.50781 -1.4361,-1.14881 -2.2977,-2.65663 -2.5849,-4.52345 -2.0104,-11.2009 -6.1748,-19.45798 -12.4933,-24.77123 -6.1749,-5.45685 -14.4319,-8.18527 -24.7712,-8.18527 -12.0625,0 -21.612,3.94904 -28.6485,11.84711 -7.0365,7.89807 -10.5547,19.24258 -10.5547,34.03351 v 65.26681 h -28.2176 z"
         id="text3"
         aria-label="Cottonlogger"
         sodipodi:nodetypes="ccsscssccscscsccscsssscccscssccccsscscscsccscscscscscscscccsscsccccccsccccccsscscscsccscscscscscscsscsssccssssscccccccccsscscscsccscscscscsscscscscscccccssccscscsscscsccscccssscccsscccscscscscscccccssccscscsscscsccscccssscccsscccscscccsccscscccsscccsscssccscscsccscsscsccccscsscccsssccc" /><path
         style="font-size:215.402px;font-family:'Yiggivoo Unicode';-inkscape-font-specification:'Yiggivoo Unicode';letter-spacing:8.58238px;word-spacing:-0.959207px;fill-rule:evenodd;stroke:#000000;stroke-width:9.54037;stroke-linecap:round;paint-order:markers stroke fill"
         d="m 419.2916,835.6025 h 1.7233 c 22.1146,0 38.6287,-4.73884 49.5424,-14.21653 10.7701,-9.47769 16.1552,-24.55583 16.1552,-45.23442 v -48.03464 h 42.73731 v -6.03126 H 486.7125 c -2.1541,0 -4.4517,-1.22061 -6.8929,-3.66183 -2.4412,-2.44123 -4.667,-5.81586 -6.6775,-10.1239 -2.154,-4.30804 -3.949,-9.40589 -5.385,-15.29354 -1.436,-5.88765 -2.2258,-12.20611 -2.3694,-18.95537 h -7.1083 v 48.03464 h -31.0179 v 6.03126 h 31.0179 v 48.03464 c 0,6.03125 -0.4308,12.27791 -1.2924,18.73997 -1.0052,6.31846 -2.872,12.13432 -5.6005,17.44757 -2.7284,5.16965 -6.6056,9.47768 -11.6317,12.92411 -5.1696,3.30283 -11.9907,4.95425 -20.4632,4.95425 z"
         id="text4"
         aria-label="Cottonlogger"
         sodipodi:nodetypes="cscscccsscsccccccsccccc" /></g></g></svg>
